# xmcd
#
# Track frame offsets:
#	150
#	8347
#	22684
#	33569
#	46824
#	59088
#	63172
#	72956
#	90710
#	110135
#	118876
#	131708
#	141302
#	159769
#	175571
#	185825
#	198681
#	211766
#	219853
#	230557
#	241465
#	253782
#
# Disc length: 3420 seconds
#
# Revision: 0
# Processed by: cddbd v1.5.1PL0 Copyright (c) Steve Scherf et al.
# Submitted via: audiograbber 1.80
#
DISCID=3a0d5a16
DTITLE=Marcelinho de Lima - Ao vivo no Arrasta Pé
DYEAR=1900
DGENRE=
TTITLE0=Abertura
TTITLE1=Trovejou mas não choveu
TTITLE2=Como um anjo
TTITLE3=Trânsito parado
TTITLE4=Tudo por nada
TTITLE5=Cai sereno cai
TTITLE6=Eu achei bom
TTITLE7=Frente a frente
TTITLE8=Tolice
TTITLE9=Bateu bateu
TTITLE10=O Brasil tá cheio
TTITLE11=Paixão mineira
TTITLE12=Você vai ver
TTITLE13=Ilusão
TTITLE14=Sem medo de ser feliz
TTITLE15=Rabo de saia
TTITLE16=Inevitável
TTITLE17=Volta pra mim
TTITLE18=Coração aberto
TTITLE19=A barra vai pesar
TTITLE20=Quer namorar comigo
TTITLE21=Encerramento
EXTD=
EXTT0=
EXTT1=
EXTT2=
EXTT3=
EXTT4=
EXTT5=
EXTT6=
EXTT7=
EXTT8=
EXTT9=
EXTT10=
EXTT11=
EXTT12=
EXTT13=
EXTT14=
EXTT15=
EXTT16=
EXTT17=
EXTT18=
EXTT19=
EXTT20=
EXTT21=
PLAYORDER=
